<svg xmlns="http://www.w3.org/2000/svg" xmlns:xlink="http://www.w3.org/1999/xlink" viewBox="0 0 576.69 267.39"><defs><style>.cls-1{fill:url(#Gradiente_sem_nome_94);}.cls-2{fill:none;}.cls-10,.cls-11,.cls-12,.cls-13,.cls-2,.cls-6,.cls-7,.cls-8,.cls-9{stroke:#000;stroke-miterlimit:10;stroke-width:3px;}.cls-3{fill:url(#Gradiente_sem_nome_95);}.cls-4{fill:url(#Gradiente_sem_nome_94-2);}.cls-5{fill:url(#Gradiente_sem_nome_94-3);}.cls-6{fill:url(#Gradiente_sem_nome_72);}.cls-7{fill:url(#Gradiente_sem_nome_94-4);}.cls-8{fill:url(#Gradiente_sem_nome_94-5);}.cls-9{fill:url(#Gradiente_sem_nome_94-6);}.cls-10{fill:url(#Gradiente_sem_nome_94-7);}.cls-11{fill:url(#Gradiente_sem_nome_72-2);}.cls-12{fill:url(#Gradiente_sem_nome_72-3);}.cls-13{fill:url(#Gradiente_sem_nome_94-8);}</style><linearGradient id="Gradiente_sem_nome_94" x1="99.93" y1="311.88" x2="99.93" y2="86.65" gradientUnits="userSpaceOnUse"><stop offset="0" stop-color="#e72200"/><stop offset="0.51" stop-color="#eece01"/></linearGradient><linearGradient id="Gradiente_sem_nome_95" x1="159.36" y1="119.9" x2="159.36" y2="48.26" gradientUnits="userSpaceOnUse"><stop offset="0" stop-color="#e72200"/><stop offset="0" stop-color="#eece01"/></linearGradient><linearGradient id="Gradiente_sem_nome_94-2" x1="276.94" y1="312.65" x2="276.94" y2="48.88" xlink:href="#Gradiente_sem_nome_94"/><linearGradient id="Gradiente_sem_nome_94-3" x1="475.74" y1="311.88" x2="475.74" y2="48.5" xlink:href="#Gradiente_sem_nome_94"/><linearGradient id="Gradiente_sem_nome_72" x1="575.48" y1="27.71" x2="575.48" y2="27.71" gradientUnits="userSpaceOnUse"><stop offset="0.04" stop-color="#e59e03"/><stop offset="0.38" stop-color="#e5c500"/><stop offset="0.99" stop-color="#bf6f00"/></linearGradient><linearGradient id="Gradiente_sem_nome_94-4" x1="475.25" y1="303.51" x2="475.25" y2="49.22" xlink:href="#Gradiente_sem_nome_94"/><linearGradient id="Gradiente_sem_nome_94-5" x1="456.73" y1="272.13" x2="456.73" y2="272.13" xlink:href="#Gradiente_sem_nome_94"/><linearGradient id="Gradiente_sem_nome_94-6" x1="415.31" y1="302.99" x2="415.31" y2="302.99" xlink:href="#Gradiente_sem_nome_94"/><linearGradient id="Gradiente_sem_nome_94-7" x1="446.59" y1="244.62" x2="446.59" y2="244.62" xlink:href="#Gradiente_sem_nome_94"/><linearGradient id="Gradiente_sem_nome_72-2" x1="489.93" y1="184.42" x2="489.93" y2="184.42" xlink:href="#Gradiente_sem_nome_72"/><linearGradient id="Gradiente_sem_nome_72-3" x1="427.63" y1="183.29" x2="427.63" y2="183.29" xlink:href="#Gradiente_sem_nome_72"/><linearGradient id="Gradiente_sem_nome_94-8" x1="477.93" y1="289.87" x2="477.93" y2="289.87" xlink:href="#Gradiente_sem_nome_94"/></defs><g id="Desenho"><path class="cls-1" d="M14.89,311.88c-4.4,0-6-3-3.59-6.67l27.93-42.35a16.64,16.64,0,0,1,12.4-6.68h29a111.34,111.34,0,0,0,13.2-.78l3.39-1.89,5.58-3.1a51,51,0,0,0,4.66-14.6L119.61,145A22.44,22.44,0,0,1,127,132.18L184.26,88c3.48-2.69,5.89-1.31,5.36,3L175.57,205c-.54,4.37-1.41,11.51-1.95,15.88l-4.57,37.45c-.54,4.37-1.33,11.53-1.77,15.9,0,0-1.86,18.75-20.54,31.16a44.37,44.37,0,0,1-16,6.51Z" transform="translate(-8.67 -46.76)"/><path class="cls-2" d="M14.89,311.88c-4.4,0-6-3-3.59-6.67l27.93-42.35a16.64,16.64,0,0,1,12.4-6.68h29a111.34,111.34,0,0,0,13.2-.78l3.39-1.89,5.58-3.1a51,51,0,0,0,4.66-14.6L119.61,145A22.44,22.44,0,0,1,127,132.18L184.26,88c3.48-2.69,5.89-1.31,5.36,3L175.57,205c-.54,4.37-1.41,11.51-1.95,15.88l-4.57,37.45c-.54,4.37-1.33,11.53-1.77,15.9,0,0-1.86,18.75-20.54,31.16a44.37,44.37,0,0,1-16,6.51Z" transform="translate(-8.67 -46.76)"/><path class="cls-3" d="M129.91,118.49c-3.45,2.72-5.88,1.37-5.4-3l6.54-59.36a9.05,9.05,0,0,1,8.88-7.87l46.81.44a7.55,7.55,0,0,1,7.52,8.06L194,60.34a20.42,20.42,0,0,1-6.77,12.94Z" transform="translate(-8.67 -46.76)"/><path class="cls-2" d="M129.91,118.49c-3.45,2.72-5.88,1.37-5.4-3l6.54-59.36a9.05,9.05,0,0,1,8.88-7.87l46.81.44a7.55,7.55,0,0,1,7.52,8.06L194,60.34a20.42,20.42,0,0,1-6.77,12.94Z" transform="translate(-8.67 -46.76)"/><path class="cls-4" d="M211.8,56.25c-1.56-4.11.76-7.43,5.16-7.37l113.19,1.56c4.4.06,11.58.44,16,.84,0,0,6.53.6,16.33,7.86A44,44,0,0,1,374.3,72.48a102.36,102.36,0,0,1,9.48,40.29,100.1,100.1,0,0,1-2.37,24.6,80.24,80.24,0,0,1-2.6,9.72,51,51,0,0,1-8.28,13.36s-.72.79-3.94,4.17c-3.38,3.57-4.46,4.67-4.46,4.67a6.39,6.39,0,0,0,1,10.15s2.5,1.68,7.57,7.7a57.63,57.63,0,0,1,10.08,17.48c5.2,14.44,4.32,26.95,3.55,34.67a91.89,91.89,0,0,1-5.63,23.7,112.7,112.7,0,0,1-13.33,21.93c-3.6,4.63-6.32,8.13-11,11.85-8.18,6.56-16.35,9-24,11.26a110.89,110.89,0,0,1-19.56,3.85c-17,1.66-137.19.11-137.19.11-4.4-.06-6.07-3.15-3.71-6.86l26.39-41.6a16.25,16.25,0,0,1,12.29-6.76h75.26c4.4,0,10.26-.07,13-.17l3.42-.72a29.89,29.89,0,0,0,6.08-1.77,23.56,23.56,0,0,0,11-10.37,19.72,19.72,0,0,0,2.07-11,19.48,19.48,0,0,0-4.15-10.07,32.66,32.66,0,0,0-9.23-8.24c-8-4.69-15.94-4.55-20.1-4.5-13,.14-44.74-.45-44.74-.45a7.13,7.13,0,0,1-7.08-8.09l4.68-40.4a9.23,9.23,0,0,1,8.92-8h26.67c4.4,0,11.59-.19,16-.41,0,0,7.1-.37,16.18-6.52a30.84,30.84,0,0,0,7.83-7.29,29.77,29.77,0,0,0,5.33-12.15l.49-2.63a47.49,47.49,0,0,0-.59-7l-.87-2h0c-2-3-6.95-6.75-11.05-8.34,0,0-7.23-2.81-8.13-2.87-12.57-.74-37.3-.58-69.33,1.19Z" transform="translate(-8.67 -46.76)"/><path class="cls-2" d="M211.8,56.25c-1.56-4.11.76-7.43,5.16-7.37l113.19,1.56c4.4.06,11.58.44,16,.84,0,0,6.53.6,16.33,7.86A44,44,0,0,1,374.3,72.48a102.36,102.36,0,0,1,9.48,40.29,100.1,100.1,0,0,1-2.37,24.6,80.24,80.24,0,0,1-2.6,9.72,51,51,0,0,1-8.28,13.36s-.72.79-3.94,4.17c-3.38,3.57-4.46,4.67-4.46,4.67a6.39,6.39,0,0,0,1,10.15s2.5,1.68,7.57,7.7a57.63,57.63,0,0,1,10.08,17.48c5.2,14.44,4.32,26.95,3.55,34.67a91.89,91.89,0,0,1-5.63,23.7,112.7,112.7,0,0,1-13.33,21.93c-3.6,4.63-6.32,8.13-11,11.85-8.18,6.56-16.35,9-24,11.26a110.89,110.89,0,0,1-19.56,3.85c-17,1.66-137.19.11-137.19.11-4.4-.06-6.07-3.15-3.71-6.86l26.39-41.6a16.25,16.25,0,0,1,12.29-6.76h75.26c4.4,0,10.26-.07,13-.17l3.42-.72a29.89,29.89,0,0,0,6.08-1.77,23.56,23.56,0,0,0,11-10.37,19.72,19.72,0,0,0,2.07-11,19.48,19.48,0,0,0-4.15-10.07,32.66,32.66,0,0,0-9.23-8.24c-8-4.69-15.94-4.55-20.1-4.5-13,.14-44.74-.45-44.74-.45a7.13,7.13,0,0,1-7.08-8.09l4.68-40.4a9.23,9.23,0,0,1,8.92-8h26.67c4.4,0,11.59-.19,16-.41,0,0,7.1-.37,16.18-6.52a30.84,30.84,0,0,0,7.83-7.29,29.77,29.77,0,0,0,5.33-12.15l.49-2.63a47.49,47.49,0,0,0-.59-7l-.87-2h0c-2-3-6.95-6.75-11.05-8.34,0,0-7.23-2.81-8.13-2.87-12.57-.74-37.3-.58-69.33,1.19Z" transform="translate(-8.67 -46.76)"/><path class="cls-5" d="M582.9,49.43c.11-.36-3.39-.67-7.79-.67L376.79,48.5c-4.4,0-8.09.07-8.21.17a39.11,39.11,0,0,0,5.9,5.28L431.7,98.66A15.68,15.68,0,0,1,437,111.52L412.35,304a6.87,6.87,0,0,0,7,7.93h48a9.2,9.2,0,0,0,8.91-7.94l21.69-190.65c.5-4.37.95-8.34,1-8.82s3.14-2.8,6.86-5.15l70.1-44.26A33.93,33.93,0,0,0,582.9,49.43Z" transform="translate(-8.67 -46.76)"/><path class="cls-2" d="M582.9,49.43c.11-.36-3.39-.67-7.79-.67L376.79,48.5c-4.4,0-8.09.07-8.21.17a39.11,39.11,0,0,0,5.9,5.28L431.7,98.66A15.68,15.68,0,0,1,437,111.52L412.35,304a6.87,6.87,0,0,0,7,7.93h48a9.2,9.2,0,0,0,8.91-7.94l21.69-190.65c.5-4.37.95-8.34,1-8.82s3.14-2.8,6.86-5.15l70.1-44.26A33.93,33.93,0,0,0,582.9,49.43Z" transform="translate(-8.67 -46.76)"/><path class="cls-6" d="M575.48,27.71" transform="translate(-8.67 -46.76)"/></g><g id="pintura"><path class="cls-7" d="M477.93,289.87l20.91-183.71.2-1.76,55.7-1.18L582.89,49.3c-72.55-.3-142.49.31-215,0l-.24.22,33.06,54.88H438l-25.47,199a5,5,0,0,1,.73.16" transform="translate(-8.67 -46.76)"/><path class="cls-8" d="M456.73,272.13" transform="translate(-8.67 -46.76)"/><path class="cls-9" d="M415.31,303" transform="translate(-8.67 -46.76)"/><path class="cls-10" d="M446.59,244.62" transform="translate(-8.67 -46.76)"/><path class="cls-11" d="M489.93,184.42" transform="translate(-8.67 -46.76)"/><path class="cls-12" d="M427.63,183.29" transform="translate(-8.67 -46.76)"/><path class="cls-13" d="M477.93,289.87" transform="translate(-8.67 -46.76)"/></g></svg>